<svg xmlns="http://www.w3.org/2000/svg" xmlns:xlink="http://www.w3.org/1999/xlink" width="40" height="34.837" viewBox="0 0 40 34.837">
  <defs>
    <clipPath id="clip-path">
      <rect id="長方形_394" data-name="長方形 394" width="40" height="34.837" fill="#0041c0"/>
    </clipPath>
  </defs>
  <g id="グループ_496" data-name="グループ 496" transform="translate(0 0)">
    <g id="グループ_495" data-name="グループ 495" transform="translate(0 0)" clip-path="url(#clip-path)">
      <path id="パス_417" data-name="パス 417" d="M33.529,11.524a2.986,2.986,0,0,1-.881-1.957V1.895A1.18,1.18,0,0,0,31.471.718H29.118a1.18,1.18,0,0,0-1.177,1.177V5.4c0,.647-.4.826-.881.4L20.881.322a1.366,1.366,0,0,0-1.761,0L.292,17c-.485.429-.351.78.3.78H4.411a1.18,1.18,0,0,1,1.177,1.177V33.661a1.18,1.18,0,0,0,1.177,1.177h9.412a1.18,1.18,0,0,0,1.177-1.177V26.6a1.18,1.18,0,0,1,1.177-1.177h3.53A1.18,1.18,0,0,1,23.236,26.6v7.059a1.18,1.18,0,0,0,1.177,1.177h9.412A1.18,1.18,0,0,0,35,33.661V18.954a1.18,1.18,0,0,1,1.177-1.177h3.235c.647,0,.78-.351.3-.78Z" transform="translate(0 0)" fill="#0041c0"/>
    </g>
  </g>
</svg>
