<svg xmlns="http://www.w3.org/2000/svg" xmlns:xlink="http://www.w3.org/1999/xlink" width="40" height="40" viewBox="0 0 40 40">
  <defs>
    <clipPath id="clip-path">
      <path id="パス_386" data-name="パス 386" d="M2.5,22.5a20,20,0,1,0,20-20,20,20,0,0,0-20,20" transform="translate(-2.5 -2.5)" fill="none"/>
    </clipPath>
  </defs>
  <g id="グループ_257" data-name="グループ 257" transform="translate(-2.5 -2.5)">
    <g id="グループ_256" data-name="グループ 256" transform="translate(2.5 2.5)" clip-path="url(#clip-path)">
      <path id="パス_384" data-name="パス 384" d="M42.5,22.5a20,20,0,1,1-20-20,20,20,0,0,1,20,20" transform="translate(-2.5 -2.5)" fill="#fff"/>
      <path id="パス_385" data-name="パス 385" d="M40.21,35.941c-1.061-1.1-3.025-1.419-4.391-1.891a15.119,15.119,0,0,1-2.577-1.106,5.034,5.034,0,0,1-1.14-.787,3.434,3.434,0,0,1-.378-1.784c.089-.255.553-.487.747-.666a7.88,7.88,0,0,0,.787-.848,8.8,8.8,0,0,0,1.161-1.917,10.949,10.949,0,0,0,.914-4.452c0-4.81-2.872-8.71-6.413-8.71s-6.413,3.9-6.413,8.71a10.949,10.949,0,0,0,.914,4.452,8.787,8.787,0,0,0,1.161,1.917,7.835,7.835,0,0,0,.787.848c.194.18.658.411.747.666a3.41,3.41,0,0,1-.369,1.784,5.044,5.044,0,0,1-1.14.787,15.134,15.134,0,0,1-2.577,1.106c-1.367.472-3.33.792-4.391,1.891-3.246,2.829-3.52,13.743-3.5,16.372H43.709c.022-2.629-.252-13.543-3.5-16.372" transform="translate(-8.924 -8.727)" fill="#0041c0"/>
      <circle id="楕円形_5" data-name="楕円形 5" cx="20" cy="20" r="20" transform="translate(0 0)" fill="none" stroke="#fff" stroke-miterlimit="10" stroke-width="5"/>
    </g>
  </g>
</svg>
