<svg xmlns="http://www.w3.org/2000/svg" width="20" height="21.166" viewBox="0 0 20 21.166">
  <g id="グループ_174" data-name="グループ 174" transform="translate(-1733 -758.917)">
    <path id="パス_32" data-name="パス 32" d="M17.23,3.006V1.288a1.288,1.288,0,0,0-2.577,0V2.454H5.347V1.288a1.289,1.289,0,0,0-2.577,0V3.006A5.057,5.057,0,0,0,0,7.51v8.6a5.061,5.061,0,0,0,5.055,5.055h9.89A5.061,5.061,0,0,0,20,16.111V7.51a5.057,5.057,0,0,0-2.77-4.5M5.055,4.415h9.89A3.1,3.1,0,0,1,18,7.035H2a3.1,3.1,0,0,1,3.054-2.62m9.89,14.79H5.055a3.1,3.1,0,0,1-3.094-3.094V9H18.039v7.115A3.1,3.1,0,0,1,14.945,19.2" transform="translate(1733 758.917)" fill="#0041C0"/>
    <path id="パス_33" data-name="パス 33" d="M6.135,10.878A1.145,1.145,0,1,0,7.28,12.023a1.145,1.145,0,0,0-1.145-1.145" transform="translate(1733 758.917)" fill="#0041C0"/>
    <path id="パス_34" data-name="パス 34" d="M6.135,14.6A1.146,1.146,0,1,0,7.28,15.746,1.145,1.145,0,0,0,6.135,14.6" transform="translate(1733 758.917)" fill="#0041C0"/>
    <path id="パス_35" data-name="パス 35" d="M10,10.878a1.145,1.145,0,1,0,1.145,1.145A1.145,1.145,0,0,0,10,10.878" transform="translate(1733 758.917)" fill="#0041C0"/>
    <path id="パス_36" data-name="パス 36" d="M10,14.6a1.146,1.146,0,1,0,1.145,1.145A1.145,1.145,0,0,0,10,14.6" transform="translate(1733 758.917)" fill="#0041C0"/>
    <path id="パス_37" data-name="パス 37" d="M13.866,10.878a1.145,1.145,0,1,0,1.145,1.145,1.145,1.145,0,0,0-1.145-1.145" transform="translate(1733 758.917)" fill="#0041C0"/>
    <path id="パス_38" data-name="パス 38" d="M13.866,14.6a1.146,1.146,0,1,0,1.145,1.145A1.145,1.145,0,0,0,13.866,14.6" transform="translate(1733 758.917)" fill="#0041C0"/>
    <rect id="長方形_31" data-name="長方形 31" width="20" height="21.166" transform="translate(1733 758.917)" fill="none"/>
  </g>
</svg>
