<svg xmlns="http://www.w3.org/2000/svg" xmlns:xlink="http://www.w3.org/1999/xlink" width="40" height="40.001" viewBox="0 0 40 40.001">
  <defs>
    <clipPath id="clip-path">
      <rect id="長方形_331" data-name="長方形 331" width="40" height="40" fill="none"/>
    </clipPath>
    <clipPath id="clip-path-2">
      <path id="パス_383" data-name="パス 383" d="M20,0A20,20,0,1,0,40,20,20,20,0,0,0,20,0Z" fill="none"/>
    </clipPath>
  </defs>
  <g id="グループ_255" data-name="グループ 255" transform="translate(0 0)">
    <g id="グループ_252" data-name="グループ 252">
      <g id="グループ_251" data-name="グループ 251" transform="translate(0 0)" clip-path="url(#clip-path)">
        <path id="パス_381" data-name="パス 381" d="M40,20A20,20,0,1,1,20,0,20,20,0,0,1,40,20" transform="translate(0 0)" fill="#0041c0"/>
      </g>
    </g>
    <g id="グループ_254" data-name="グループ 254">
      <g id="グループ_253" data-name="グループ 253" clip-path="url(#clip-path-2)">
        <path id="パス_382" data-name="パス 382" d="M37.71,33.441c-1.061-1.1-3.025-1.419-4.391-1.891a15.119,15.119,0,0,1-2.577-1.106,5.034,5.034,0,0,1-1.14-.787,3.434,3.434,0,0,1-.378-1.784c.089-.255.553-.487.747-.666a7.88,7.88,0,0,0,.787-.848,8.8,8.8,0,0,0,1.161-1.917,10.949,10.949,0,0,0,.914-4.452c0-4.81-2.872-8.71-6.413-8.71s-6.413,3.9-6.413,8.71a10.949,10.949,0,0,0,.914,4.452,8.787,8.787,0,0,0,1.161,1.917,7.834,7.834,0,0,0,.787.848c.194.18.658.411.747.666a3.41,3.41,0,0,1-.369,1.784,5.044,5.044,0,0,1-1.14.787,15.135,15.135,0,0,1-2.577,1.106c-1.367.472-3.33.792-4.391,1.891-3.246,2.829-3.52,13.743-3.5,16.372H41.209c.022-2.629-.252-13.543-3.5-16.372" transform="translate(-6.424 -6.227)" fill="#fff"/>
      </g>
    </g>
  </g>
</svg>
